<?xml version="1.0" encoding="UTF-8"?>
<svg xmlns="http://www.w3.org/2000/svg" xmlns:xlink="http://www.w3.org/1999/xlink" width="100pt" height="41pt" viewBox="0 0 100 41" version="1.1">
<g id="surface1">
<path style=" stroke:none;fill-rule:nonzero;fill:rgb(85.882353%,12.54902%,17.254902%);fill-opacity:1;" d="M 14.292969 10.449219 L 14.292969 13.871094 L 4.347656 13.871094 L 4.347656 19.035156 L 13.753906 19.035156 L 13.753906 22.339844 L 4.347656 22.339844 L 4.347656 30.957031 L 0.453125 30.957031 L 0.453125 10.449219 Z M 14.292969 10.449219 "/>
<path style=" stroke:none;fill-rule:nonzero;fill:rgb(85.882353%,12.54902%,17.254902%);fill-opacity:1;" d="M 24.777344 20.386719 C 24.269531 20.207031 23.851562 20.085938 23.3125 20.085938 C 21.125 20.085938 19.355469 22.277344 19.355469 25.433594 L 19.355469 30.957031 L 15.640625 30.957031 L 15.640625 16.996094 L 19.328125 16.996094 L 19.328125 19.277344 L 19.386719 19.277344 C 20.226562 17.625 21.421875 16.664062 23.222656 16.664062 C 23.878906 16.664062 24.328125 16.816406 24.777344 16.996094 Z M 24.777344 20.386719 "/>
<path style=" stroke:none;fill-rule:nonzero;fill:rgb(85.882353%,12.54902%,17.254902%);fill-opacity:1;" d="M 97.179688 20.386719 C 96.671875 20.207031 96.253906 20.085938 95.714844 20.085938 C 93.527344 20.085938 91.757812 22.277344 91.757812 25.433594 L 91.757812 30.957031 L 88.042969 30.957031 L 88.042969 16.996094 L 91.730469 16.996094 L 91.730469 19.277344 L 91.789062 19.277344 C 92.628906 17.625 93.824219 16.664062 95.625 16.664062 C 96.28125 16.664062 96.734375 16.816406 97.179688 16.996094 Z M 97.179688 20.386719 "/>
<path style=" stroke:none;fill-rule:nonzero;fill:rgb(85.882353%,12.54902%,17.254902%);fill-opacity:1;" d="M 29.003906 23.960938 C 29.003906 26.453125 30.859375 27.984375 32.746094 27.984375 C 34.902344 27.984375 36.34375 25.941406 36.34375 24.019531 C 36.34375 21.980469 34.84375 19.96875 32.777344 19.96875 C 30.621094 19.96875 29.003906 21.679688 29.003906 23.960938 M 40.324219 23.992188 C 40.324219 27.652344 37.421875 31.285156 32.628906 31.285156 C 27.953125 31.285156 25.019531 27.863281 25.019531 24.019531 C 25.019531 19.636719 28.671875 16.664062 32.476562 16.664062 C 37.628906 16.664062 40.324219 20.417969 40.324219 23.992188 "/>
<path style=" stroke:none;fill-rule:nonzero;fill:rgb(85.882353%,12.54902%,17.254902%);fill-opacity:1;" d="M 54.554688 30.957031 L 50.839844 30.957031 L 50.839844 22.847656 C 50.839844 21.40625 50.421875 20.265625 48.804688 20.265625 C 46.554688 20.265625 45.238281 22.609375 45.238281 25.28125 L 45.238281 30.957031 L 41.523438 30.957031 L 41.523438 16.996094 L 45.234375 16.996094 L 45.238281 19.1875 C 45.835938 18.285156 46.945312 16.664062 49.640625 16.664062 C 52.996094 16.664062 54.554688 18.976562 54.554688 21.859375 Z M 54.554688 30.957031 "/>
<path style=" stroke:none;fill-rule:nonzero;fill:rgb(85.882353%,12.54902%,17.254902%);fill-opacity:1;" d="M 70.730469 30.957031 L 67.015625 30.957031 L 67.015625 16.996094 L 70.730469 16.996094 Z M 70.730469 30.957031 "/>
<path style=" stroke:none;fill-rule:nonzero;fill:rgb(85.882353%,12.54902%,17.254902%);fill-opacity:1;" d="M 82.203125 21.917969 C 81.964844 20.328125 80.585938 19.457031 79.386719 19.457031 C 79.089844 19.457031 77.019531 19.546875 76.242188 21.917969 Z M 86.21875 24.472656 L 75.914062 24.472656 C 76.121094 25.160156 76.300781 25.671875 76.78125 26.273438 C 77.679688 27.351562 79 27.863281 80.167969 27.863281 C 82.203125 27.863281 84.0625 26.8125 85.679688 25.550781 L 85.679688 29.363281 C 84.449219 30.023438 82.144531 31.285156 79.566406 31.285156 C 75.132812 31.285156 72.046875 27.894531 72.046875 24.019531 C 72.046875 20.117188 75.164062 16.664062 79.296875 16.664062 C 83.492188 16.664062 86.21875 19.667969 86.21875 23.902344 Z M 86.21875 24.472656 "/>
<path style=" stroke:none;fill-rule:nonzero;fill:rgb(85.882353%,12.54902%,17.254902%);fill-opacity:1;" d="M 61.132812 12.820312 L 61.132812 17.023438 L 65.027344 17.023438 L 65.027344 19.816406 L 61.25 19.816406 L 61.25 25.910156 C 61.25 27.472656 62.089844 27.863281 63.050781 27.863281 C 63.796875 27.863281 64.457031 27.625 65.027344 27.382812 L 65.027344 30.6875 C 63.917969 30.984375 62.78125 31.167969 61.640625 31.167969 C 59.125 31.167969 57.539062 29.875 57.539062 27.171875 L 57.539062 19.816406 L 55.230469 19.816406 L 55.230469 17.023438 L 57.539062 17.023438 L 57.539062 12.804688 L 61.132812 12.804688 "/>
<path style=" stroke:none;fill-rule:nonzero;fill:rgb(85.882353%,12.54902%,17.254902%);fill-opacity:1;" d="M 64.535156 8.550781 C 64.535156 9.53125 63.742188 10.328125 62.761719 10.328125 C 61.785156 10.328125 60.992188 9.53125 60.992188 8.550781 C 60.992188 7.570312 61.785156 6.777344 62.761719 6.777344 C 63.742188 6.777344 64.535156 7.570312 64.535156 8.550781 "/>
<path style=" stroke:none;fill-rule:nonzero;fill:rgb(85.882353%,12.54902%,17.254902%);fill-opacity:1;" d="M 58.050781 5.140625 C 58.050781 5.964844 57.386719 6.636719 56.558594 6.636719 C 55.738281 6.636719 55.070312 5.964844 55.070312 5.140625 C 55.070312 4.316406 55.738281 3.648438 56.558594 3.648438 C 57.386719 3.648438 58.050781 4.316406 58.050781 5.140625 "/>
<path style=" stroke:none;fill-rule:nonzero;fill:rgb(85.882353%,12.54902%,17.254902%);fill-opacity:1;" d="M 51.851562 2.992188 C 51.851562 3.765625 51.226562 4.394531 50.453125 4.394531 C 49.683594 4.394531 49.058594 3.765625 49.058594 2.992188 C 49.058594 2.21875 49.683594 1.589844 50.453125 1.589844 C 51.226562 1.589844 51.851562 2.21875 51.851562 2.992188 "/>
<path style=" stroke:none;fill-rule:nonzero;fill:rgb(85.882353%,12.54902%,17.254902%);fill-opacity:1;" d="M 45.234375 1.917969 C 45.234375 2.585938 44.691406 3.128906 44.019531 3.128906 C 43.351562 3.128906 42.808594 2.585938 42.808594 1.917969 C 42.808594 1.246094 43.351562 0.703125 44.019531 0.703125 C 44.691406 0.703125 45.234375 1.246094 45.234375 1.917969 "/>
<path style=" stroke:none;fill-rule:nonzero;fill:rgb(85.882353%,12.54902%,17.254902%);fill-opacity:1;" d="M 38.519531 1.917969 C 38.519531 2.484375 38.0625 2.945312 37.492188 2.945312 C 36.925781 2.945312 36.46875 2.484375 36.46875 1.917969 C 36.46875 1.347656 36.925781 0.890625 37.492188 0.890625 C 38.0625 0.890625 38.519531 1.347656 38.519531 1.917969 "/>
<path style=" stroke:none;fill-rule:nonzero;fill:rgb(85.882353%,12.54902%,17.254902%);fill-opacity:1;" d="M 32.015625 2.757812 C 32.015625 3.261719 31.609375 3.667969 31.109375 3.667969 C 30.605469 3.667969 30.199219 3.261719 30.199219 2.757812 C 30.199219 2.253906 30.605469 1.847656 31.109375 1.847656 C 31.609375 1.847656 32.015625 2.253906 32.015625 2.757812 "/>
<path style=" stroke:none;fill-rule:nonzero;fill:rgb(85.882353%,12.54902%,17.254902%);fill-opacity:1;" d="M 25.628906 5.09375 C 25.628906 5.441406 25.347656 5.722656 25 5.722656 C 24.652344 5.722656 24.371094 5.441406 24.371094 5.09375 C 24.371094 4.746094 24.652344 4.464844 25 4.464844 C 25.347656 4.464844 25.628906 4.746094 25.628906 5.09375 "/>
<path style=" stroke:none;fill-rule:nonzero;fill:rgb(85.882353%,12.54902%,17.254902%);fill-opacity:1;" d="M 20.359375 8.625 C 20.359375 8.84375 20.183594 9.019531 19.964844 9.019531 C 19.75 9.019531 19.574219 8.84375 19.574219 8.625 C 19.574219 8.40625 19.75 8.230469 19.964844 8.230469 C 20.183594 8.230469 20.359375 8.40625 20.359375 8.625 "/>
<path style=" stroke:none;fill-rule:nonzero;fill:rgb(85.882353%,12.54902%,17.254902%);fill-opacity:1;" d="M 17.199219 12.550781 C 17.199219 12.710938 17.070312 12.84375 16.90625 12.84375 C 16.742188 12.84375 16.613281 12.710938 16.613281 12.550781 C 16.613281 12.386719 16.742188 12.253906 16.90625 12.253906 C 17.070312 12.253906 17.199219 12.386719 17.199219 12.550781 "/>
<path style=" stroke:none;fill-rule:nonzero;fill:rgb(85.882353%,12.54902%,17.254902%);fill-opacity:1;" d="M 70.800781 13.304688 C 70.800781 14.390625 69.90625 15.261719 68.820312 15.261719 C 67.683594 15.261719 66.84375 14.335938 66.84375 13.277344 C 66.84375 12.109375 67.820312 11.292969 68.742188 11.292969 C 69.417969 11.292969 70.800781 11.863281 70.800781 13.304688 "/>
<path style=" stroke:none;fill-rule:nonzero;fill:rgb(30.980392%,29.803922%,30.196078%);fill-opacity:1;" d="M 5.992188 39.382812 C 5.367188 40.011719 4.5625 40.289062 3.703125 40.289062 C 1.5 40.289062 0.488281 38.761719 0.488281 37.15625 C 0.488281 35.550781 1.515625 33.953125 3.703125 33.953125 C 4.53125 33.953125 5.304688 34.25 5.929688 34.878906 L 5.277344 35.507812 C 4.835938 35.078125 4.269531 34.878906 3.703125 34.878906 C 2.144531 34.878906 1.457031 36.023438 1.457031 37.148438 C 1.457031 38.265625 2.136719 39.375 3.703125 39.375 C 4.269531 39.375 4.894531 39.136719 5.320312 38.710938 Z M 5.992188 39.382812 "/>
<path style=" stroke:none;fill-rule:nonzero;fill:rgb(30.980392%,29.803922%,30.196078%);fill-opacity:1;" d="M 10.167969 39.398438 C 11.683594 39.398438 12.320312 38.316406 12.320312 37.15625 C 12.320312 36.03125 11.683594 34.859375 10.1875 34.835938 C 8.765625 34.835938 8.019531 35.820312 8.019531 37.15625 C 8.042969 38.238281 8.65625 39.398438 10.167969 39.398438 M 13.285156 37.140625 C 13.285156 38.789062 12.285156 40.296875 10.167969 40.296875 C 8.054688 40.296875 7.050781 38.753906 7.050781 37.148438 C 7.050781 35.289062 8.351562 33.945312 10.1875 33.945312 C 12.269531 33.945312 13.285156 35.488281 13.285156 37.140625 "/>
<path style=" stroke:none;fill-rule:nonzero;fill:rgb(30.980392%,29.803922%,30.196078%);fill-opacity:1;" d="M 20.410156 35.488281 L 18.339844 38.378906 L 18.128906 38.378906 L 16.082031 35.488281 L 16.082031 40.175781 L 15.109375 40.175781 L 15.109375 34.066406 L 16.238281 34.066406 L 18.25 36.929688 L 20.253906 34.066406 L 21.386719 34.066406 L 21.386719 40.175781 L 20.410156 40.175781 Z M 20.410156 35.488281 "/>
<path style=" stroke:none;fill-rule:nonzero;fill:rgb(30.980392%,29.803922%,30.196078%);fill-opacity:1;" d="M 28.851562 35.488281 L 26.78125 38.378906 L 26.570312 38.378906 L 24.523438 35.488281 L 24.523438 40.175781 L 23.550781 40.175781 L 23.550781 34.066406 L 24.679688 34.066406 L 26.691406 36.929688 L 28.695312 34.066406 L 29.828125 34.066406 L 29.828125 40.175781 L 28.851562 40.175781 Z M 28.851562 35.488281 "/>
<path style=" stroke:none;fill-rule:nonzero;fill:rgb(30.980392%,29.803922%,30.196078%);fill-opacity:1;" d="M 37.101562 34.066406 L 37.101562 37.644531 C 37.101562 39.441406 35.917969 40.332031 34.449219 40.289062 C 33.089844 40.261719 31.929688 39.371094 31.929688 37.644531 L 31.929688 34.066406 L 32.898438 34.066406 L 32.898438 37.644531 C 32.898438 38.746094 33.542969 39.363281 34.449219 39.390625 C 35.421875 39.433594 36.136719 38.8125 36.136719 37.644531 L 36.136719 34.066406 Z M 37.101562 34.066406 "/>
<path style=" stroke:none;fill-rule:nonzero;fill:rgb(30.980392%,29.803922%,30.196078%);fill-opacity:1;" d="M 43.410156 38.402344 L 43.410156 34.058594 L 44.382812 34.058594 L 44.382812 40.167969 L 43.644531 40.167969 L 40.1875 35.855469 L 40.1875 40.167969 L 39.203125 40.167969 L 39.203125 34.058594 L 39.953125 34.058594 Z M 43.410156 38.402344 "/>
<path style=" stroke:none;fill-rule:nonzero;fill:rgb(30.980392%,29.803922%,30.196078%);fill-opacity:1;" d="M 46.542969 34.058594 L 47.507812 34.058594 L 47.507812 40.167969 L 46.542969 40.167969 Z M 46.542969 34.058594 "/>
<path style=" stroke:none;fill-rule:nonzero;fill:rgb(30.980392%,29.803922%,30.196078%);fill-opacity:1;" d="M 54.808594 39.382812 C 54.183594 40.011719 53.382812 40.289062 52.519531 40.289062 C 50.316406 40.289062 49.308594 38.761719 49.308594 37.15625 C 49.308594 35.550781 50.335938 33.953125 52.519531 33.953125 C 53.347656 33.953125 54.121094 34.25 54.75 34.878906 L 54.097656 35.507812 C 53.652344 35.078125 53.085938 34.878906 52.519531 34.878906 C 50.960938 34.878906 50.273438 36.023438 50.273438 37.148438 C 50.273438 38.265625 50.953125 39.375 52.519531 39.375 C 53.085938 39.375 53.714844 39.136719 54.140625 38.710938 Z M 54.808594 39.382812 "/>
<path style=" stroke:none;fill-rule:nonzero;fill:rgb(30.980392%,29.803922%,30.196078%);fill-opacity:1;" d="M 59.152344 35.085938 L 57.867188 37.996094 L 60.441406 37.996094 Z M 60.800781 38.882812 L 57.5 38.882812 L 56.925781 40.167969 L 55.886719 40.167969 L 58.621094 34.058594 L 59.683594 34.058594 L 62.417969 40.167969 L 61.382812 40.167969 Z M 60.800781 38.882812 "/>
<path style=" stroke:none;fill-rule:nonzero;fill:rgb(30.980392%,29.803922%,30.196078%);fill-opacity:1;" d="M 64.535156 34.941406 L 62.53125 34.941406 L 62.53125 34.058594 L 67.515625 34.058594 L 67.515625 34.941406 L 65.519531 34.941406 L 65.519531 40.167969 L 64.535156 40.167969 Z M 64.535156 34.941406 "/>
<path style=" stroke:none;fill-rule:nonzero;fill:rgb(30.980392%,29.803922%,30.196078%);fill-opacity:1;" d="M 69.019531 34.058594 L 69.984375 34.058594 L 69.984375 40.167969 L 69.019531 40.167969 Z M 69.019531 34.058594 "/>
<path style=" stroke:none;fill-rule:nonzero;fill:rgb(30.980392%,29.803922%,30.196078%);fill-opacity:1;" d="M 74.902344 39.398438 C 76.417969 39.398438 77.054688 38.316406 77.054688 37.15625 C 77.054688 36.03125 76.417969 34.859375 74.917969 34.835938 C 73.5 34.835938 72.75 35.820312 72.75 37.15625 C 72.777344 38.238281 73.386719 39.398438 74.902344 39.398438 M 78.019531 37.140625 C 78.019531 38.789062 77.019531 40.296875 74.902344 40.296875 C 72.785156 40.296875 71.785156 38.753906 71.785156 37.148438 C 71.785156 35.289062 73.082031 33.945312 74.917969 33.945312 C 77 33.945312 78.019531 35.488281 78.019531 37.140625 "/>
<path style=" stroke:none;fill-rule:nonzero;fill:rgb(30.980392%,29.803922%,30.196078%);fill-opacity:1;" d="M 84.046875 38.402344 L 84.046875 34.058594 L 85.019531 34.058594 L 85.019531 40.167969 L 84.28125 40.167969 L 80.824219 35.855469 L 80.824219 40.167969 L 79.839844 40.167969 L 79.839844 34.058594 L 80.589844 34.058594 Z M 84.046875 38.402344 "/>
<path style=" stroke:none;fill-rule:nonzero;fill:rgb(30.980392%,29.803922%,30.196078%);fill-opacity:1;" d="M 90.816406 35.464844 C 90.527344 35.042969 89.945312 34.792969 89.308594 34.78125 C 88.492188 34.78125 87.898438 35.121094 87.898438 35.65625 C 87.898438 36.25 88.578125 36.414062 89.378906 36.527344 C 90.632812 36.710938 91.828125 37.050781 91.828125 38.40625 C 91.828125 39.773438 90.570312 40.289062 89.300781 40.289062 C 88.125 40.289062 87.238281 39.929688 86.679688 38.902344 L 87.410156 38.414062 C 87.855469 39.15625 88.605469 39.417969 89.308594 39.417969 C 90.042969 39.417969 90.851562 39.179688 90.851562 38.40625 C 90.851562 37.777344 90.15625 37.53125 89.292969 37.417969 C 88.082031 37.253906 86.933594 36.945312 86.933594 35.636719 C 86.957031 34.460938 88.167969 33.9375 89.285156 33.9375 C 90.164062 33.9375 91.042969 34.144531 91.554688 34.964844 Z M 90.816406 35.464844 "/>
<path style=" stroke:none;fill-rule:nonzero;fill:rgb(85.882353%,12.54902%,17.254902%);fill-opacity:1;" d="M 98.746094 16.980469 L 99.042969 17.394531 L 99.34375 16.980469 L 99.546875 16.980469 L 99.546875 17.9375 L 99.335938 17.9375 L 99.347656 17.308594 L 99.0625 17.707031 L 99.015625 17.707031 L 98.738281 17.296875 L 98.746094 17.9375 L 98.535156 17.9375 L 98.535156 16.980469 Z M 97.566406 17.175781 L 97.566406 16.984375 L 98.402344 16.984375 L 98.402344 17.175781 L 98.085938 17.175781 L 98.085938 17.9375 L 97.878906 17.9375 L 97.878906 17.175781 Z M 97.566406 17.175781 "/>
</g>
</svg>
